HIERARCHY
ROOT Hips
{
  OFFSET 196.326 95.9168 97.7182
  CHANNELS 6 Xposition Yposition Zposition Zrotation Xrotation Yrotation
  JOINT LeftUpLeg
  {
    OFFSET 8.64259 1.95398 -2.38835
    CHANNELS 3 Zrotation Xrotation Yrotation
    JOINT LeftLeg
    {
      OFFSET 43.7702 0 0
      CHANNELS 3 Zrotation Xrotation Yrotation
      JOINT LeftFoot
      {
        OFFSET 40.6238 0 0
        CHANNELS 3 Zrotation Xrotation Yrotation
        JOINT LeftToeBase
        {
          OFFSET 12.7242 0 0
          CHANNELS 3 Zrotation Xrotation Yrotation
          End Site
          {
            OFFSET 0 0 0
          }
        }
      }
    }
  }
  JOINT RightUpLeg
  {
    OFFSET -8.2249 1.95398 -2.59336
    CHANNELS 3 Zrotation Xrotation Yrotation
    JOINT RightLeg
    {
      OFFSET 43.5653 0 0
      CHANNELS 3 Zrotation Xrotation Yrotation
      JOINT RightFoot
      {
        OFFSET 40.6238 0 0
        CHANNELS 3 Zrotation Xrotation Yrotation
        JOINT RightToeBase
        {
          OFFSET 12.7242 0 0
          CHANNELS 3 Zrotation Xrotation Yrotation
          End Site
          {
            OFFSET 0 0 0
          }
        }
      }
    }
  }
  JOINT Spine
  {
    OFFSET 0.165834 0.87714 6.61349
    CHANNELS 3 Zrotation Xrotation Yrotation
    JOINT Spine1
    {
      OFFSET 7.38963 1.71661e-005 0
      CHANNELS 3 Zrotation Xrotation Yrotation
      JOINT Spine2
      {
        OFFSET 11.9445 1.14441e-005 0
        CHANNELS 3 Zrotation Xrotation Yrotation
        JOINT Spine3
        {
          OFFSET 14.7254 4.19617e-005 0
          CHANNELS 3 Zrotation Xrotation Yrotation
          JOINT Spine4
          {
            OFFSET 10.9679 0 0
            CHANNELS 3 Zrotation Xrotation Yrotation
            JOINT RightShoulder
            {
              OFFSET 2.46616 -1.6653 3.69651
              CHANNELS 3 Zrotation Xrotation Yrotation
              JOINT RightArm
              {
                OFFSET 13.0012 0 0
                CHANNELS 3 Zrotation Xrotation Yrotation
                JOINT RightForeArm
                {
                  OFFSET 28.7848 1.52588e-005 0
                  CHANNELS 3 Zrotation Xrotation Yrotation
                  JOINT RightHand
                  {
                    OFFSET 26.5688 1.52588e-005 0
                    CHANNELS 3 Zrotation Xrotation Yrotation
                    End Site
                    {
                      OFFSET 0 0 0
                    }
                  }
                }
              }
            }
            JOINT LeftShoulder
            {
              OFFSET 2.38034 -1.29275 -3.75231
              CHANNELS 3 Zrotation Xrotation Yrotation
              JOINT LeftArm
              {
                OFFSET 16.3182 6.10351e-005 0
                CHANNELS 3 Zrotation Xrotation Yrotation
                JOINT LeftForeArm
                {
                  OFFSET 27.0901 0 0
                  CHANNELS 3 Zrotation Xrotation Yrotation
                  JOINT LeftHand
                  {
                    OFFSET 24.5451 1.52588e-005 0
                    CHANNELS 3 Zrotation Xrotation Yrotation
                    End Site
                    {
                      OFFSET 0 0 0
                    }
                  }
                }
              }
            }
            JOINT Neck
            {
              OFFSET 5.0226 -0.0266342 0
              CHANNELS 3 Zrotation Xrotation Yrotation
              JOINT Head
              {
                OFFSET 6.69363 2.86102e-005 0
                CHANNELS 3 Zrotation Xrotation Yrotation
                End Site
                {
                  OFFSET 0 0 0
                }
              }
            }
          }
        }
      }
    }
  }
}
MOTION
Frames:	13
Frame Time:	0.0416667
18.9641 94.8612 -289.409 89.2282 -42.3918 85.5549 -167.056 14.5466 91.0982 -27.4427 64.1007 -17.5292 37.6436 -15.4287 44.9212 38.0668 12.8865 26.7533 177.55 16.7181 94.1452 -32.4893 14.976 2.04901 74.6946 -3.36023 -1.67565 26.7172 -1.78814 20.1193 -0.832136 7.40904 -90.0121 12.0581 -1.65994 0.157806 0.388227 -1.65139 0.230709 -22.1552 -1.63062 -0.34851 -2.14256 -1.63063 -0.348528 77.8335 -53.7614 -117.512 23.4968 -10.7574 12.285 -3.47613 -17.2001 -54.5217 -14.2224 -3.46111 24.3908 -85.8592 -38.3054 83.0152 -30.394 13.0711 0.174623 9.07599 16.7454 -36.8725 11.2014 -1.05371 -12.45 10.9411 -15.7308 -10.1673 -2.64788 -12.7945 7.08224 
19.9544 95.1425 -289.328 89.2243 -47.4631 85.0543 -170.774 15.4833 91.7128 -33.562 42.8837 -5.41806 40.9845 -8.0994 35.8216 44.5897 22.9027 22.108 179.788 15.7639 94.5609 -31.1404 12.5528 -0.937116 73.8762 -3.20043 -1.59997 27.8903 -1.43872 19.2507 -0.189274 7.2334 -90.1776 12.4066 -0.460476 -0.302158 0.735756 -0.473334 -0.281605 -21.7998 -0.348384 -0.426582 -1.78714 -0.348377 -0.426581 84.901 -48.6356 -109.028 30.315 -6.10928 11.7905 -10.8325 -12.453 -48.4786 -7.60012 -0.772415 7.48571 -97.7851 -39.5496 63.2778 -34.1629 4.02613 11.0729 10.95 10.8663 -41.6537 6.51174 0.552406 3.18957 6.77549 -15.3757 -1.649 -0.394807 -14.8223 -0.259638 
22.6085 95.6433 -289.977 87.027 -55.2166 83.3622 -175.03 15.1314 92.0168 -27.3558 31.6656 -0.658409 46.3335 -0.683401 32.4339 50.4223 28.266 13.3664 -179.174 15.1779 93.6701 -29.4822 6.2267 -2.66359 73.345 -3.55101 -1.76061 28.4311 -1.29816 19.0635 -0.0910847 7.1961 -90.2129 12.481 -0.282167 -0.39268 0.810036 -0.299178 -0.379883 -21.7248 -0.151114 -0.459319 -1.7121 -0.151112 -0.45933 84.4846 -47.9966 -109.871 30.573 -6.92136 10.2504 -13.09 -11.2824 -52.3336 -5.35442 -0.51239 4.19228 -98.7145 -40.227 62.0956 -36.0472 5.49916 11.2055 8.20434 10.7732 -35.9422 3.31039 0.157991 0.722829 8.12668 -12.6368 0.0434562 -0.177056 -12.3932 0.289031 
25.2049 96.0575 -290.582 83.58 -62.7302 81.0002 -178.327 14.3842 92.4582 -21.0232 29.8224 2.28942 52.8224 5.05476 24.6187 64.1155 36.9282 -2.49122 -178.348 15.2442 93.1619 -28.2635 0.886518 -3.79443 72.1096 -3.53008 -1.75908 29.1532 -1.19125 20.038 -0.052446 7.18674 -90.247 12.4996 -0.22173 -0.46752 0.828574 -0.242078 -0.457316 -21.7059 -0.0709672 -0.512539 -1.69326 -0.0709601 -0.512539 83.8545 -48.3608 -110.712 29.777 -9.27473 7.83244 -12.9277 -10.8997 -55.9972 -7.05088 -0.621377 4.03054 -98.7925 -40.3225 62.0127 -37.4925 6.12087 10.4162 5.95492 10.2538 -30.874 2.4887 0.118337 0.532236 9.54963 -9.62975 0.297167 0.346039 -9.417 1.30842 
27.802 96.0518 -291.279 81.178 -69.6582 80.3127 -178.308 12.4776 93.6804 -16.8104 34.47 3.08226 54.6979 5.60818 21.2155 64.4575 33.4 -10.6879 -176.95 14.9693 93.6975 -27.9454 -4.09974 -5.29615 71.1227 -3.49348 -1.74685 31.084 -0.697808 19.3959 -0.0228076 7.25922 -90.3768 12.3541 -0.224124 -0.726826 0.68302 -0.255912 -0.716264 -21.8505 0.00466435 -0.760578 -1.83786 0.00466147 -0.760583 84.1572 -47.6951 -110.48 31.1422 -9.07082 7.27653 -14.4562 -9.58303 -58.4674 -7.22329 -0.597028 3.35422 -99.2969 -40.4669 61.2681 -38.0423 6.67053 9.7685 7.33114 15.2102 -29.763 2.18052 0.153297 1.7577 9.67869 -6.68397 0.466661 1.47063 -6.54805 1.42245 
30.6078 96.1936 -292.251 77.7914 -75.33 77.5651 -176.935 12.1879 92.9514 -17.8455 24.1589 2.92428 59.0037 7.21767 15.1418 54.6616 20.3611 -26.1793 -175.756 14.7327 93.0568 -27.3337 -8.76986 -6.97946 70.3376 -3.6375 -1.84209 32.2969 -0.384143 18.682 -0.128768 7.30576 -90.3688 12.2606 -0.430699 -0.687819 0.589515 -0.460555 -0.668202 -21.9443 -0.204076 -0.78545 -1.9317 -0.204088 -0.78547 83.3433 -48.7003 -111.371 30.3748 -8.14198 7.60124 -15.8909 -10.1484 -59.1609 -7.46543 -0.626316 3.49755 -99.2621 -40.5729 61.3696 -37.7389 7.18545 9.19598 6.52295 14.4393 -29.6398 4.61877 0.484222 5.32301 10.2561 -4.13379 0.102225 1.80691 -3.91259 2.09246 
33.0289 96.291 -293.386 64.9602 -80.3585 65.4072 -175.817 13.7061 92.0057 -19.4995 18.4202 2.18877 60.5637 7.73675 14.7995 50.183 16.3558 -31.1178 -173.671 16.6871 92.8069 -27.9045 -11.1613 -8.81103 68.5314 -3.45717 -1.81522 34.252 0.0952496 17.2799 -0.155107 7.29177 -90.3286 12.2887 -0.464018 -0.603888 0.617675 -0.490143 -0.582884 -21.9166 -0.26108 -0.715423 -1.90397 -0.26108 -0.715427 81.7527 -50.1549 -113.235 28.6642 -5.90157 8.86734 -17.5583 -9.45608 -60.6816 -4.76637 -0.482076 4.49707 -98.7856 -40.2552 61.9945 -36.4699 7.86177 7.56738 5.67234 12.5501 -29.8971 8.29778 0.551249 2.43162 11.2344 -1.96537 -0.142967 2.50741 -1.70824 2.20931 
34.8503 96.2625 -294.226 46.5072 -83.6532 47.5612 -174.862 14.1017 91.8952 -19.8786 20.8381 1.04768 58.9469 7.89725 19.6651 53.4389 18.8038 -29.3346 -173.608 18.4393 92.9143 -29.0155 -5.83168 -8.03577 68.9068 -3.75074 -1.97047 32.2908 -0.233282 13.7189 -0.175358 7.31023 -90.2603 12.2521 -0.471845 -0.466522 0.581167 -0.491926 -0.445307 -21.9537 -0.309825 -0.586758 -1.94101 -0.309831 -0.586771 80.6987 -50.9148 -114.506 27.6965 -5.50338 9.28063 -19.127 -12.0069 -58.3314 -7.01787 -0.772716 6.7214 -98.8318 -39.672 61.6694 -33.6817 7.50662 7.05699 6.21193 11.1174 -32.674 9.0822 0.580587 2.33562 11.9226 -0.486517 -0.210034 3.05846 -0.276169 1.72978 
36.3716 96.4893 -294.779 23.8475 -85.5753 24.5574 -174.891 13.0974 90.9518 -18.7662 28.3691 0.000259552 52.935 5.59697 29.3798 54.6543 20.1724 -26.9663 -177.111 19.2834 92.3776 -31.5917 3.24197 -4.894 69.8507 -3.84067 -1.99408 35.9323 0.440493 16.4836 -0.212349 7.30302 -90.0875 12.2677 -0.46348 -0.122633 0.596798 -0.468412 -0.102123 -21.9389 -0.405199 -0.256269 -1.92619 -0.405178 -0.256243 80.3749 -51.3803 -114.802 27.2699 -6.15951 8.84262 -13.3177 -11.4893 -52.2094 -9.86554 -0.971218 6.26024 -98.7693 -39.7803 61.8173 -29.7793 7.17126 6.29818 6.40405 9.98792 -34.8758 12.744 0.962455 3.55351 11.5582 0.70974 -0.384247 3.76983 0.94476 1.72745 
37.4387 96.6697 -295.179 -15.557 -86.4036 -14.8107 -174.409 11.7358 90.9308 -16.8684 32.9097 -1.00287 51.8962 4.36174 30.4183 49.4801 18.9465 -15.4885 -179.396 18.7683 93.0167 -34.0679 8.51429 -2.62674 69.8421 -3.86854 -2.014 38.9891 1.07213 16.6434 -0.123985 7.30553 -89.9849 12.2629 -0.239208 0.0569928 0.592011 -0.236476 0.0674588 -21.9433 -0.245282 -0.0175369 -1.93069 -0.245285 -0.0175395 80.4656 -50.8895 -114.858 27.7418 -7.87676 9.11665 -11.2512 -13.5534 -46.4331 -9.01134 -0.943217 6.84535 -98.1636 -39.6684 62.7486 -27.5138 5.5934 4.89009 6.53343 8.54085 -36.1032 17.0539 1.55883 5.24554 12.6957 1.29853 -0.0220259 2.89747 1.39035 1.39938 
38.287 96.7953 -295.282 -43.1794 -86.4076 -42.819 -174.281 10.3175 90.3232 -15.9027 35.2287 -1.62905 50.5731 3.38098 32.5137 47.8628 18.1983 -12.5977 178.847 16.6117 93.1053 -33.4732 10.9213 -0.813082 65.9833 -2.54299 -1.32956 41.8053 1.9728 20.7118 -0.116134 7.28258 -89.8888 12.3087 -0.177977 0.242167 0.637736 -0.167145 0.249759 -21.8974 -0.242533 0.177479 -1.88475 -0.242527 0.17749 80.8409 -50.6307 -114.404 28.1085 -10.2297 9.34485 -10.8951 -16.9803 -41.7019 -6.19508 -0.641051 5.39997 -98.2399 -39.861 62.7068 -26.1363 3.80331 4.02745 5.28919 5.23025 -36.145 19.7591 1.902 5.81325 13.5666 1.92764 0.87547 2.02846 1.70492 0.66256 
38.9412 96.778 -294.986 -60.4764 -85.3087 -61.0131 -174.529 9.06425 89.0561 -14.8868 34.6969 -1.90783 50.4079 3.1354 33.0806 47.3141 18.1392 -10.433 177.531 13.5903 92.0952 -29.3311 13.776 0.705055 65.9709 -2.63716 -1.43723 42.1546 2.33544 27.0372 -0.0644796 7.20986 -89.7627 12.4541 -0.0151853 0.475775 0.783034 0.00575946 0.475982 -21.7515 -0.157479 0.44922 -1.73884 -0.157477 0.449214 81.5538 -50.2109 -113.509 28.8887 -11.3429 8.74886 -9.4317 -19.9973 -37.541 -5.6463 -0.690894 7.88583 -98.6274 -40.277 62.2583 -25.2651 3.2537 3.46682 4.62479 3.74206 -36.6666 21.6431 2.18465 6.29987 14.3443 2.52346 2.03006 0.804157 1.91472 -0.107947 
39.2538 96.7044 -294.569 -57.2319 -84.4739 -58.8115 -174.153 9.67636 88.1292 -15.9782 29.7388 -2.14822 54.2285 5.10551 27.6375 46.7092 18.3347 -6.68229 176.654 10.9591 90.8349 -24.5206 14.0057 1.59571 71.0532 -4.4834 -2.39438 36.4468 0.603979 28.0437 -0.0869439 7.04901 -89.635 12.7753 0.00201385 0.729431 1.10413 0.034111 0.728625 -21.4295 -0.217304 0.696316 -1.41684 -0.217307 0.696306 81.4908 -50.5917 -113.46 29.3162 -10.8672 8.96863 -9.10567 -20.962 -35.2647 -3.19317 -0.456423 7.09935 -98.7361 -40.6158 62.228 -25.6159 4.05101 2.57908 3.51635 2.40755 -36.104 20.3353 1.59284 3.99906 14.7617 2.83351 2.17092 -0.242378 2.18072 0.0676569 
